<svg width="117" height="117" viewBox="0 0 117 117" fill="none" xmlns="http://www.w3.org/2000/svg">
<g opacity="0.5">
<path opacity="0.5" d="M58.5 117C90.8087 117 117 90.8084 117 58.4999C117 26.1913 90.8087 0 58.5 0C26.1913 0 0 26.1913 0 58.4999C0 90.8084 26.1913 117 58.5 117Z" fill="url(#paint0_linear)"/>
</g>
<path d="M58.5001 115.445C90.1257 115.445 115.763 89.8073 115.763 58.1818C115.763 26.5563 90.1257 0.918701 58.5001 0.918701C26.8744 0.918701 1.23669 26.5563 1.23669 58.1818C1.23669 89.8073 26.8744 115.445 58.5001 115.445Z" fill="#F5F5F5"/>
<path d="M58.6615 115.607C69.8515 115.625 80.7994 112.349 90.1401 106.187C88.0301 94.6577 79.9989 93.9965 79.9989 93.9965H35.7239C35.7239 93.9965 28.152 94.6174 25.7795 105.228C35.4059 111.999 46.8922 115.625 58.6615 115.607Z" fill="#6C63FF"/>
<path d="M58.0607 82.3056C72.0809 82.3056 83.4465 70.94 83.4465 56.9199C83.4465 42.8997 72.0809 31.5342 58.0607 31.5342C44.0405 31.5342 32.6749 42.8997 32.6749 56.9199C32.6749 70.94 44.0405 82.3056 58.0607 82.3056Z" fill="#333333"/>
<path opacity="0.1" d="M49.1411 79.9433H66.8541V94.1127C66.8541 96.4609 65.9213 98.713 64.2608 100.373C62.6004 102.034 60.3484 102.967 58.0001 102.967C56.8374 102.967 55.6861 102.738 54.6119 102.293C53.5377 101.848 52.5616 101.196 51.7394 100.373C50.9173 99.5512 50.2651 98.5752 49.8201 97.501C49.3752 96.4268 49.1462 95.2754 49.1462 94.1127V79.9433H49.1411Z" fill="black"/>
<path d="M50.8322 79.2871H65.163C65.3851 79.2871 65.605 79.3309 65.8101 79.4158C66.0153 79.5008 66.2017 79.6254 66.3587 79.7824C66.5158 79.9394 66.6403 80.1259 66.7253 80.331C66.8103 80.5362 66.854 80.7561 66.854 80.9782V93.4565C66.854 95.8048 65.9212 98.0568 64.2608 99.7173C62.6003 101.378 60.3483 102.311 58.0001 102.311C56.8374 102.311 55.6861 102.082 54.6119 101.637C53.5377 101.192 52.5616 100.539 51.7395 99.7173C50.9173 98.8951 50.2651 97.919 49.8202 96.8448C49.3752 95.7706 49.1462 94.6193 49.1462 93.4565V80.9782C49.1462 80.5305 49.3237 80.1012 49.6397 79.7842C49.9558 79.4672 50.3846 79.2884 50.8322 79.2871Z" fill="#BE7C5E"/>
<path opacity="0.1" d="M49.1765 86.6317C54.885 88.7652 61.169 88.7831 66.8895 86.6822V84.5066H49.1765V86.6317Z" fill="black"/>
<path d="M58.0607 87.8179C72.0809 87.8179 83.4465 76.4523 83.4465 62.4322C83.4465 48.412 72.0809 37.0464 58.0607 37.0464C44.0405 37.0464 32.6749 48.412 32.6749 62.4322C32.6749 76.4523 44.0405 87.8179 58.0607 87.8179Z" fill="#BE7C5E"/>
<path d="M42.6798 51.9629C42.9776 50.8675 43.3512 49.661 44.3355 49.0906C45.1129 48.6363 46.0771 48.707 46.9756 48.7524C53.9921 49.136 60.9481 47.5359 67.7729 45.865C71.6749 44.911 75.8495 43.7499 78.3735 40.6051C80.8974 37.4603 77.6062 27.5765 73.7647 26.4105C71.2408 25.6381 68.313 27.0768 65.9203 25.9461C64.8552 25.4413 64.0728 24.4973 63.1541 23.7603C61.2712 22.246 58.8533 21.6352 56.511 21.0597C53.7751 20.3833 50.817 19.722 48.2174 20.8073C46.1982 21.6453 44.7242 23.4171 42.8111 24.467C39.1715 26.4862 34.7344 25.5473 30.5649 25.5372C29.1565 25.5372 27.4756 25.8199 26.9152 27.1121C26.5367 27.9904 26.8395 28.9899 26.8799 29.944C27.0011 32.9727 24.5024 35.3301 22.4075 37.5158C20.3126 39.7015 18.3338 42.8211 19.6564 45.5369C20.1612 46.5717 21.0849 47.3541 21.6099 48.3789C22.5135 50.1557 22.0592 52.3011 22.3873 54.2647C22.7158 55.7547 23.2726 57.185 24.038 58.5049C25.5927 61.5336 33.4018 77.8383 36.9908 73.694C38.7273 71.6748 39.01 65.8395 39.7117 63.2146C40.6808 59.4421 41.6702 55.6916 42.6798 51.9629Z" fill="#333333"/>
<path d="M39.9994 65.9354C41.3041 65.9354 42.3617 63.9533 42.3617 61.5083C42.3617 59.0633 41.3041 57.0812 39.9994 57.0812C38.6946 57.0812 37.637 59.0633 37.637 61.5083C37.637 63.9533 38.6946 65.9354 39.9994 65.9354Z" fill="#BE7C5E"/>
<defs>
<linearGradient id="paint0_linear" x1="58.5" y1="117" x2="58.5" y2="0.00504876" gradientUnits="userSpaceOnUse">
<stop stop-color="#808080" stop-opacity="0.25"/>
<stop offset="0.54" stop-color="#808080" stop-opacity="0.12"/>
<stop offset="1" stop-color="#808080" stop-opacity="0.1"/>
</linearGradient>
</defs>
</svg>
